<svg width="32" height="32" viewBox="0 0 32 32" fill="none" xmlns="http://www.w3.org/2000/svg">
  <!-- Background circle -->
  <circle cx="16" cy="16" r="16" fill="#2563eb"/>
  
  <!-- Book icon -->
  <path d="M8 6h16a2 2 0 0 1 2 2v16a2 2 0 0 1-2 2H8a2 2 0 0 1-2-2V8a2 2 0 0 1 2-2z" fill="white" opacity="0.9"/>
  <path d="M8 6h16a2 2 0 0 1 2 2v16a2 2 0 0 1-2 2H8a2 2 0 0 1-2-2V8a2 2 0 0 1 2-2z" stroke="#2563eb" stroke-width="0.5" fill="none"/>
  
  <!-- Book spine -->
  <line x1="16" y1="6" x2="16" y2="26" stroke="#2563eb" stroke-width="1"/>
  
  <!-- Book pages -->
  <line x1="10" y1="10" x2="14" y2="10" stroke="#2563eb" stroke-width="0.8" opacity="0.7"/>
  <line x1="10" y1="13" x2="14" y2="13" stroke="#2563eb" stroke-width="0.8" opacity="0.7"/>
  <line x1="10" y1="16" x2="14" y2="16" stroke="#2563eb" stroke-width="0.8" opacity="0.7"/>
  
  <line x1="18" y1="10" x2="22" y2="10" stroke="#2563eb" stroke-width="0.8" opacity="0.7"/>
  <line x1="18" y1="13" x2="22" y2="13" stroke="#2563eb" stroke-width="0.8" opacity="0.7"/>
  <line x1="18" y1="16" x2="22" y2="16" stroke="#2563eb" stroke-width="0.8" opacity="0.7"/>
  
  <!-- Small graduation cap accent -->
  <circle cx="22" cy="10" r="3" fill="#fbbf24" opacity="0.9"/>
  <path d="M20 8l4 2-4 2-4-2z" fill="#f59e0b"/>
  <rect x="21.5" y="7" width="1" height="2" fill="#f59e0b"/>
</svg>